<svg xmlns="http://www.w3.org/2000/svg" width="425" height="337.5" viewBox="0 0 425 337.5">
  <g>
    <path fill="none" stroke="rgb(255,255,255)" stroke-linecap="round" stroke-linejoin="round" stroke-width="25" d="M12.5 212.5c0-110.3830049 89.6169951-200 200-200s200 89.6169951 200 200"/>
    <path fill="rgb(255,255,255)" fill-rule="evenodd" d="M249.3072815 93.0163269C237.66912841 89.43057251 225.30822753 87.5 212.5 87.5c-68.98937988 0-125 56.01062012-125 125s56.01062012 125 125 125 125-56.01062012 125-125c0-12.80822754-1.93057251-25.16912842-5.5163269-36.8072815C322.17663574 197.3880005 300.33920288 212.5 275 212.5c-34.49468994 0-62.5-28.00531006-62.5-62.5 0-25.33920288 15.11199951-47.17663574 36.8072815-56.9836731z"/>
  </g>
</svg>
